<svg version="1.1" viewBox="0.0 0.0 128.0 128.0" fill="none" stroke="none" stroke-linecap="square" stroke-miterlimit="10" xmlns:xlink="http://www.w3.org/1999/xlink" xmlns="http://www.w3.org/2000/svg"><clipPath id="p.0"><path d="m0 0l128.0 0l0 128.0l-128.0 0l0 -128.0z" clip-rule="nonzero"/></clipPath><g clip-path="url(#p.0)"><path fill="#000000" fill-opacity="0.0" d="m0 0l128.0 0l0 128.0l-128.0 0z" fill-rule="evenodd"/><path fill="#000000" fill-opacity="0.0" d="m16.0 63.824146l0 0c0 -26.509666 21.490334 -48.0 48.0 -48.0l0 0c12.730392 0 24.939377 5.057128 33.941124 14.058875c9.001747 9.001747 14.058876 21.210732 14.058876 33.941124l0 0c0 26.50967 -21.490334 48.000004 -48.0 48.000004l0 0c-26.509666 0 -48.0 -21.490334 -48.0 -48.000004z" fill-rule="evenodd"/><path stroke="#cc0000" stroke-width="3.0" stroke-linejoin="round" stroke-linecap="butt" d="m16.0 63.824146l0 0c0 -26.509666 21.490334 -48.0 48.0 -48.0l0 0c12.730392 0 24.939377 5.057128 33.941124 14.058875c9.001747 9.001747 14.058876 21.210732 14.058876 33.941124l0 0c0 26.50967 -21.490334 48.000004 -48.0 48.000004l0 0c-26.509666 0 -48.0 -21.490334 -48.0 -48.000004z" fill-rule="evenodd"/></g></svg>