<svg version="1.1" viewBox="0.0 0.0 960.0 540.0" fill="none" stroke="none" stroke-linecap="square" stroke-miterlimit="10" xmlns:xlink="http://www.w3.org/1999/xlink" xmlns="http://www.w3.org/2000/svg"><clipPath id="p.0"><path d="m0 0l960.0 0l0 540.0l-960.0 0l0 -540.0z" clip-rule="nonzero"/></clipPath><g clip-path="url(#p.0)"><path fill="#000000" fill-opacity="0.0" d="m0 0l960.0 0l0 540.0l-960.0 0z" fill-rule="evenodd"/><path fill="#000000" fill-opacity="0.0" d="m42.183727 491.00787l0 -192.53543l243.84251 192.53543z" fill-rule="evenodd"/><path stroke="#674ea7" stroke-width="3.0" stroke-linejoin="round" stroke-linecap="butt" d="m42.183727 491.00787l0 -192.53543l243.84251 192.53543z" fill-rule="evenodd"/><path fill="#000000" fill-opacity="0.0" d="m815.9921 358.39633l40.968506 -187.55907l81.93701 0l40.968506 187.55907z" fill-rule="evenodd"/><path stroke="#f1c232" stroke-width="3.0" stroke-linejoin="round" stroke-linecap="butt" d="m815.9921 358.39633l40.968506 -187.55907l81.93701 0l40.968506 187.55907z" fill-rule="evenodd"/><path fill="#000000" fill-opacity="0.0" d="m786.95276 86.54068l0 0c0 -61.290558 49.68579 -110.97638 110.97638 -110.97638l0 0c29.43274 0 57.660034 11.692121 78.47217 32.504227c20.812073 20.812109 32.50421 49.039383 32.50421 78.472145l0 0c0 61.290558 -49.685852 110.97638 -110.97638 110.97638l0 0c-61.29059 0 -110.97638 -49.68582 -110.97638 -110.97638z" fill-rule="evenodd"/><path stroke="#cc0000" stroke-width="3.0" stroke-linejoin="round" stroke-linecap="butt" d="m786.95276 86.54068l0 0c0 -61.290558 49.68579 -110.97638 110.97638 -110.97638l0 0c29.43274 0 57.660034 11.692121 78.47217 32.504227c20.812073 20.812109 32.50421 49.039383 32.50421 78.472145l0 0c0 61.290558 -49.685852 110.97638 -110.97638 110.97638l0 0c-61.29059 0 -110.97638 -49.68582 -110.97638 -110.97638z" fill-rule="evenodd"/><path fill="#000000" fill-opacity="0.0" d="m69.67191 286.5853l24.0 -47.99997l48.000008 0l24.0 47.99997l-24.0 47.99997l-48.000008 0z" fill-rule="evenodd"/><path stroke="#3d85c6" stroke-width="3.0" stroke-linejoin="round" stroke-linecap="butt" d="m69.67191 286.5853l24.0 -47.99997l48.000008 0l24.0 47.99997l-24.0 47.99997l-48.000008 0z" fill-rule="evenodd"/><path fill="#000000" fill-opacity="0.0" d="m177.6378 237.6378l302.36218 -302.3622l302.36218 302.3622l-302.36218 302.36218z" fill-rule="evenodd"/><path stroke="#6aa84f" stroke-width="3.0" stroke-linejoin="round" stroke-linecap="butt" d="m177.6378 237.6378l302.36218 -302.3622l302.36218 302.3622l-302.36218 302.36218z" fill-rule="evenodd"/><path fill="#000000" fill-opacity="0.0" d="m625.10266 374.9859l133.85797 -99.33499l133.85797 99.33499l-51.12921 160.72736l-165.45752 0z" fill-rule="evenodd"/><path stroke="#a61c00" stroke-width="3.0" stroke-linejoin="round" stroke-linecap="butt" d="m625.10266 374.9859l133.85797 -99.33499l133.85797 99.33499l-51.12921 160.72736l-165.45752 0z" fill-rule="evenodd"/><path fill="#000000" fill-opacity="0.0" d="m339.3859 -24.43465l-153.16534 334.99213l-176.09448 -323.52756z" fill-rule="evenodd"/><path stroke="#e69138" stroke-width="3.0" stroke-linejoin="round" stroke-linecap="butt" d="m339.3859 -24.43465l-153.16534 334.99213l-176.09448 -323.52756z" fill-rule="evenodd"/></g></svg>